<svg xmlns="http://www.w3.org/2000/svg" viewBox="0 0 360 420" role="img" aria-label="Dancing cat">
  <defs>
    <linearGradient id="furL" x1="0" x2="1">
      <stop offset="0" stop-color="#ffcf99"/>
      <stop offset="1" stop-color="#f2a55a"/>
    </linearGradient>
  </defs>
  <rect width="100%" height="100%" fill="none"/>
  <g>
    <ellipse cx="180" cy="245" rx="95" ry="105" fill="url(#furL)"/>
    <polygon points="120,130 155,55 175,145" fill="#f2a55a"/>
    <polygon points="240,130 205,55 185,145" fill="#f2a55a"/>
    <polygon points="130,120 154,70 167,126" fill="#ffdcb9"/>
    <polygon points="230,120 206,70 193,126" fill="#ffdcb9"/>
    <circle cx="180" cy="170" r="78" fill="url(#furL)"/>
    <ellipse cx="150" cy="165" rx="10" ry="14" fill="#262626"/>
    <ellipse cx="210" cy="165" rx="10" ry="14" fill="#262626"/>
    <ellipse cx="180" cy="187" rx="14" ry="10" fill="#f47d85"/>
    <path d="M168 196 Q180 214 192 196" fill="none" stroke="#5d3c25" stroke-width="6" stroke-linecap="round"/>
    <path d="M98 176 L148 182 M98 192 L148 192 M98 208 L148 202" stroke="#5d3c25" stroke-width="4" stroke-linecap="round"/>
    <path d="M262 176 L212 182 M262 192 L212 192 M262 208 L212 202" stroke="#5d3c25" stroke-width="4" stroke-linecap="round"/>
    <ellipse cx="145" cy="282" rx="24" ry="30" fill="#ffdcb9"/>
    <ellipse cx="215" cy="282" rx="24" ry="30" fill="#ffdcb9"/>
    <path d="M258 286 Q340 262 300 210" fill="none" stroke="#f2a55a" stroke-width="20" stroke-linecap="round"/>
  </g>
</svg>
